<svg xmlns="http://www.w3.org/2000/svg" width="800" height="400" viewBox="0 0 800 400">
  <defs>
    <linearGradient id="bg" x1="0%" y1="0%" x2="100%" y2="100%">
      <stop offset="0%" style="stop-color:#0f0c29"/>
      <stop offset="50%" style="stop-color:#302b63"/>
      <stop offset="100%" style="stop-color:#24243e"/>
    </linearGradient>
    <linearGradient id="bar1" x1="0%" y1="100%" x2="0%" y2="0%">
      <stop offset="0%" style="stop-color:#e94560"/>
      <stop offset="100%" style="stop-color:#ff6b6b"/>
    </linearGradient>
    <linearGradient id="bar2" x1="0%" y1="100%" x2="0%" y2="0%">
      <stop offset="0%" style="stop-color:#e94560"/>
      <stop offset="100%" style="stop-color:#ff6b6b"/>
    </linearGradient>
    <linearGradient id="bar3" x1="0%" y1="100%" x2="0%" y2="0%">
      <stop offset="0%" style="stop-color:#e94560"/>
      <stop offset="100%" style="stop-color:#ff6b6b"/>
    </linearGradient>
  </defs>
  <rect width="800" height="400" fill="url(#bg)" rx="16"/>
  <rect x="10" y="10" width="780" height="380" fill="none" stroke="#e94560" stroke-width="1" rx="12" opacity="0.3"/>
  <text x="400" y="40" font-family="monospace" font-size="18" font-weight="bold" fill="#e94560" text-anchor="middle" letter-spacing="2">AVATRADE BONUS VERIFICATION</text>
  <text x="400" y="60" font-family="monospace" font-size="12" fill="#8892b0" text-anchor="middle">Partner Code 128979 · Tested with Real Deposits · June 2026</text>
  <!-- Chart Area -->
  <g transform="translate(60, 85)">
    <!-- Y axis labels -->
    <text x="0" y="0" font-family="monospace" font-size="11" fill="#8892b0">$800</text>
    <line x1="60" y1="-5" x2="680" y2="-5" stroke="#1a1a3e" stroke-width="1" stroke-dasharray="4"/>
    <text x="0" y="60" font-family="monospace" font-size="11" fill="#8892b0">$600</text>
    <line x1="60" y1="55" x2="680" y2="55" stroke="#1a1a3e" stroke-width="1" stroke-dasharray="4"/>
    <text x="0" y="120" font-family="monospace" font-size="11" fill="#8892b0">$400</text>
    <line x1="60" y1="115" x2="680" y2="115" stroke="#1a1a3e" stroke-width="1" stroke-dasharray="4"/>
    <text x="0" y="180" font-family="monospace" font-size="11" fill="#8892b0">$200</text>
    <line x1="60" y1="175" x2="680" y2="175" stroke="#1a1a3e" stroke-width="1" stroke-dasharray="4"/>
    <text x="0" y="240" font-family="monospace" font-size="11" fill="#8892b0">$0</text>
    <line x1="60" y1="240" x2="680" y2="240" stroke="#302b63" stroke-width="1"/>
    <!-- Bar 1: $500 deposit → $100 bonus -->
    <g transform="translate(80, 0)">
      <rect x="30" y="140" width="80" height="100" fill="#16213e" rx="4" opacity="0.8"/>
      <rect x="30" y="140" width="80" height="100" fill="url(#bar1)" rx="4" opacity="0.0"/>
      <!-- Deposit bar outline -->
      <rect x="25" y="140" width="90" height="100" fill="none" stroke="#e94560" stroke-width="1.5" rx="4"/>
      <!-- Bonus highlight -->
      <rect x="25" y="140" width="90" height="100" fill="url(#bar1)" rx="4"/>
      <!-- Labels -->
      <text x="70" y="265" font-family="monospace" font-size="13" font-weight="bold" fill="#fff" text-anchor="middle">$500</text>
      <text x="70" y="280" font-family="monospace" font-size="10" fill="#8892b0" text-anchor="middle">Deposit</text>
      <text x="70" y="118" font-family="monospace" font-size="14" font-weight="bold" fill="#41b883" text-anchor="middle">$100 🎉</text>
      <text x="70" y="132" font-family="monospace" font-size="9" fill="#e94560" text-anchor="middle">12 min</text>
    </g>
    <!-- Bar 2: $2,000 deposit → $400 bonus -->
    <g transform="translate(280, 0)">
      <rect x="30" y="40" width="80" height="200" fill="#16213e" rx="4" opacity="0.8"/>
      <rect x="30" y="40" width="80" height="200" fill="url(#bar2)" rx="4"/>
      <!-- Labels -->
      <text x="70" y="265" font-family="monospace" font-size="13" font-weight="bold" fill="#fff" text-anchor="middle">$2,000</text>
      <text x="70" y="280" font-family="monospace" font-size="10" fill="#8892b0" text-anchor="middle">Deposit</text>
      <text x="70" y="18" font-family="monospace" font-size="14" font-weight="bold" fill="#41b883" text-anchor="middle">$400 ✅</text>
      <text x="70" y="32" font-family="monospace" font-size="9" fill="#e94560" text-anchor="middle">42 min</text>
    </g>
    <!-- Bar 3: $5,000 deposit → $750 bonus -->
    <g transform="translate(480, 0)">
      <rect x="30" y="0" width="80" height="240" fill="#16213e" rx="4" opacity="0.8"/>
      <rect x="30" y="0" width="80" height="240" fill="url(#bar3)" rx="4"/>
      <!-- Labels -->
      <text x="70" y="265" font-family="monospace" font-size="13" font-weight="bold" fill="#fff" text-anchor="middle">$5,000</text>
      <text x="70" y="280" font-family="monospace" font-size="10" fill="#8892b0" text-anchor="middle">Deposit</text>
      <text x="70" y="-25" font-family="monospace" font-size="14" font-weight="bold" fill="#41b883" text-anchor="middle">$750 ✅</text>
      <text x="70" y="-11" font-family="monospace" font-size="9" fill="#e94560" text-anchor="middle">~2 hrs</text>
    </g>
  </g>
  <!-- Bottom info bar -->
  <rect x="100" y="350" width="600" height="30" fill="#16213e" rx="6"/>
  <text x="400" y="368" font-family="monospace" font-size="12" fill="#fff" text-anchor="middle">🏆 Max Cumulative Bonus: $14,000 · All deposits tested with real funds · Code: 128979</text>
</svg>
