<svg xmlns="http://www.w3.org/2000/svg" width="800" height="450" viewBox="0 0 800 450">
  <defs>
    <linearGradient id="bg" x1="0%" y1="0%" x2="100%" y2="100%">
      <stop offset="0%" style="stop-color:#0d0221"/>
      <stop offset="100%" style="stop-color:#150734"/>
    </linearGradient>
  </defs>
  <rect width="800" height="450" fill="url(#bg)" rx="12"/>
  
  <text x="400" y="35" font-family="monospace" font-size="16" font-weight="bold" fill="#e94560" text-anchor="middle">BONUS TIER LADDER</text>
  <text x="400" y="55" font-family="monospace" font-size="11" fill="#8892b0" text-anchor="middle">Deposit amounts and corresponding bonuses for code 128979</text>
  
  <!-- Tier 1: $500 -->
  <g transform="translate(60, 80)">
    <rect x="0" y="40" width="660" height="50" fill="#16213e" rx="6"/>
    <rect x="0" y="40" width="200" height="50" fill="#e94560" rx="6"/>
    <text x="100" y="70" font-family="monospace" font-size="14" font-weight="bold" fill="#fff" text-anchor="middle">$500 Deposit</text>
    <text x="400" y="70" font-family="monospace" font-size="14" fill="#41b883" text-anchor="middle">$100 Bonus</text>
    <text x="590" y="70" font-family="monospace" font-size="11" fill="#8892b0" text-anchor="middle">12 min ⚡</text>
  </g>
  
  <!-- Tier 2: $1,000 -->
  <g transform="translate(60, 140)">
    <rect x="0" y="0" width="660" height="50" fill="#16213e" rx="6"/>
    <rect x="0" y="0" width="200" height="50" fill="#e94560" rx="6"/>
    <text x="100" y="30" font-family="monospace" font-size="14" font-weight="bold" fill="#fff" text-anchor="middle">$1,000 Deposit</text>
    <text x="400" y="30" font-family="monospace" font-size="14" fill="#41b883" text-anchor="middle">$200 Bonus</text>
    <text x="590" y="30" font-family="monospace" font-size="11" fill="#8892b0" text-anchor="middle">~20 min</text>
  </g>
  
  <!-- Tier 3: $2,000 (highlighted) -->
  <g transform="translate(60, 200)">
    <rect x="0" y="0" width="660" height="55" fill="#1a2e1a" rx="6" stroke="#41b883" stroke-width="2"/>
    <rect x="0" y="0" width="250" height="55" fill="#41b883" rx="6"/>
    <text x="125" y="32" font-family="monospace" font-size="14" font-weight="bold" fill="#000" text-anchor="middle">$2,000 Deposit ⭐</text>
    <text x="420" y="32" font-family="monospace" font-size="16" font-weight="bold" fill="#41b883" text-anchor="middle">$400 Bonus</text>
    <text x="590" y="32" font-family="monospace" font-size="11" fill="#8892b0" text-anchor="middle">42 min ✅</text>
    <text x="400" y="48" font-family="monospace" font-size="10" fill="#8892b0" text-anchor="middle">Best value: 20% effective rate</text>
  </g>
  
  <!-- Tier 4: $5,000 -->
  <g transform="translate(60, 265)">
    <rect x="0" y="0" width="660" height="50" fill="#16213e" rx="6"/>
    <rect x="0" y="0" width="200" height="50" fill="#e94560" rx="6"/>
    <text x="100" y="30" font-family="monospace" font-size="14" font-weight="bold" fill="#fff" text-anchor="middle">$5,000 Deposit</text>
    <text x="400" y="30" font-family="monospace" font-size="14" fill="#41b883" text-anchor="middle">$750 Bonus</text>
    <text x="590" y="30" font-family="monospace" font-size="11" fill="#8892b0" text-anchor="middle">~2 hrs ✅</text>
  </g>
  
  <!-- Max bonus callout -->
  <rect x="200" y="340" width="400" height="50" fill="#1a1a2e" rx="25" stroke="#e94560" stroke-width="2"/>
  <text x="400" y="360" font-family="monospace" font-size="14" font-weight="bold" fill="#e94560" text-anchor="middle">🏆 MAX CUMULATIVE BONUS: $14,000</text>
  <text x="400" y="378" font-family="monospace" font-size="10" fill="#8892b0" text-anchor="middle">All tiers confirmed with real deposits on a live account (June 2026)</text>
  
  <text x="400" y="430" font-family="monospace" font-size="10" fill="#555" text-anchor="middle">Code 128979 · AvaTrade Partner Code</text>
</svg>
