<svg xmlns="http://www.w3.org/2000/svg" width="900" height="600" viewBox="0 0 900 600">
  <defs>
    <linearGradient id="bg" x1="0%" y1="0%" x2="100%" y2="100%">
      <stop offset="0%" style="stop-color:#0a0a1a"/>
      <stop offset="50%" style="stop-color:#1a1a3e"/>
      <stop offset="100%" style="stop-color:#0f0c29"/>
    </linearGradient>
    <linearGradient id="glow1" x1="0%" y1="0%" x2="0%" y2="100%">
      <stop offset="0%" style="stop-color:#e94560;stop-opacity:0.8"/>
      <stop offset="100%" style="stop-color:#e94560;stop-opacity:0.2"/>
    </linearGradient>
    <linearGradient id="glow2" x1="0%" y1="0%" x2="0%" y2="100%">
      <stop offset="0%" style="stop-color:#41b883;stop-opacity:0.8"/>
      <stop offset="100%" style="stop-color:#41b883;stop-opacity:0.2"/>
    </linearGradient>
    <linearGradient id="glow3" x1="0%" y1="0%" x2="0%" y2="100%">
      <stop offset="0%" style="stop-color:#ffa500;stop-opacity:0.8"/>
      <stop offset="100%" style="stop-color:#ffa500;stop-opacity:0.2"/>
    </linearGradient>
    <filter id="shadow">
      <feDropShadow dx="0" dy="4" stdDeviation="8" flood-color="#000" flood-opacity="0.5"/>
    </filter>
    <filter id="glowFilter">
      <feGaussianBlur stdDeviation="3" result="coloredBlur"/>
      <feMerge>
        <feMergeNode in="coloredBlur"/>
        <feMergeNode in="SourceGraphic"/>
      </feMerge>
    </filter>
  </defs>
  <rect width="900" height="600" fill="url(#bg)" rx="16"/>
  
  <!-- Subtle grid pattern -->
  <g opacity="0.03">
    <line x1="0" y1="0" x2="900" y2="600" stroke="#fff" stroke-width="0.5"/>
    <line x1="0" y1="600" x2="900" y2="0" stroke="#fff" stroke-width="0.5"/>
    <line x1="450" y1="0" x2="450" y2="600" stroke="#fff" stroke-width="0.5"/>
    <line x1="0" y1="300" x2="900" y2="300" stroke="#fff" stroke-width="0.5"/>
  </g>

  <!-- Headers -->
  <text x="45" y="40" font-family="monospace" font-size="18" font-weight="bold" fill="#e94560" letter-spacing="3">REGISTRATION WALKTHROUGH</text>
  <text x="45" y="62" font-family="monospace" font-size="12" fill="#8892b0">How to enter AvaTrade partner code 128979 during signup — the complete flow</text>
  <line x1="45" y1="72" x2="855" y2="72" stroke="#e94560" stroke-width="1" opacity="0.3"/>

  <!-- STEP 1: Account Details -->
  <g transform="translate(30, 95)" filter="url(#shadow)">
    <rect x="0" y="0" width="260" height="200" fill="#16213e" rx="10"/>
    <!-- Header bar -->
    <rect x="0" y="0" width="260" height="35" fill="#e94560" rx="10"/>
    <rect x="0" y="18" width="260" height="17" fill="#e94560"/>
    <circle cx="20" cy="17" r="11" fill="#fff" opacity="0.2"/>
    <text x="20" y="22" font-family="monospace" font-size="12" font-weight="bold" fill="#fff" text-anchor="middle">1</text>
    <text x="140" y="22" font-family="monospace" font-size="13" font-weight="bold" fill="#fff" text-anchor="middle">Fill in Details</text>
    
    <!-- Form mockup -->
    <rect x="15" y="50" width="230" height="28" fill="#0f3460" rx="5"/>
    <text x="25" y="69" font-family="monospace" font-size="10" fill="#8892b0">Full Name</text>
    
    <rect x="15" y="85" width="230" height="28" fill="#0f3460" rx="5"/>
    <text x="25" y="104" font-family="monospace" font-size="10" fill="#8892b0">Email Address</text>
    
    <rect x="15" y="120" width="230" height="28" fill="#0f3460" rx="5"/>
    <text x="25" y="139" font-family="monospace" font-size="10" fill="#8892b0">Phone Number</text>
    
    <rect x="15" y="155" width="230" height="28" fill="#0f3460" rx="5"/>
    <text x="25" y="174" font-family="monospace" font-size="10" fill="#8892b0">Country</text>
    
    <text x="130" y="193" font-family="monospace" font-size="9" fill="#555" text-anchor="middle">~2 minutes to complete</text>
  </g>

  <!-- Arrow 1→2 -->
  <g transform="translate(300, 185)">
    <line x1="0" y1="10" x2="40" y2="10" stroke="#e94560" stroke-width="2" opacity="0.6"/>
    <polygon points="40,10 32,5 32,15" fill="#e94560" opacity="0.6"/>
    <text x="20" y="0" font-family="monospace" font-size="9" fill="#555" text-anchor="middle">next</text>
  </g>

  <!-- STEP 2: Enter Partner Code (HIGHLIGHTED - CRITICAL STEP) -->
  <g transform="translate(345, 95)" filter="url(#shadow)">
    <rect x="0" y="0" width="260" height="200" fill="#1a2e1a" rx="10" stroke="#41b883" stroke-width="2"/>
    <!-- Header bar - green to highlight importance -->
    <rect x="0" y="0" width="260" height="35" fill="#41b883" rx="10"/>
    <rect x="0" y="18" width="260" height="17" fill="#41b883"/>
    <circle cx="20" cy="17" r="11" fill="#fff" opacity="0.2"/>
    <text x="20" y="22" font-family="monospace" font-size="12" font-weight="bold" fill="#000" text-anchor="middle">2</text>
    <text x="140" y="22" font-family="monospace" font-size="13" font-weight="bold" fill="#000" text-anchor="middle">Enter Partner Code</text>
    
    <!-- Warning banner -->
    <rect x="10" y="43" width="240" height="22" fill="#e94560" rx="4" opacity="0.8"/>
    <text x="130" y="58" font-family="monospace" font-size="9" font-weight="bold" fill="#fff" text-anchor="middle">⚠ MOST PEOPLE MISS THIS STEP</text>
    
    <!-- Phone field -->
    <text x="15" y="80" font-family="monospace" font-size="10" fill="#8892b0">Phone Number</text>
    <rect x="15" y="85" width="230" height="25" fill="#0f3460" rx="4"/>
    <text x="25" y="102" font-family="monospace" font-size="10" fill="#8892b0">+1 555-1234</text>
    
    <line x1="15" y1="115" x2="245" y2="115" stroke="#1a3a1e" stroke-width="1"/>
    
    <!-- THE CRITICAL FIELD -->
    <rect x="15" y="120" width="230" height="55" fill="#1a3a1e" rx="5" stroke="#41b883" stroke-width="1.5"/>
    <text x="25" y="138" font-family="monospace" font-size="12" font-weight="bold" fill="#41b883">▶ Have a Partner Code?</text>
    <rect x="25" y="148" width="210" height="20" fill="#0f3460" rx="3"/>
    <text x="35" y="162" font-family="monospace" font-size="11" font-weight="bold" fill="#fff">128979</text>
    
    <text x="130" y="193" font-family="monospace" font-size="9" fill="#41b883" text-anchor="middle">Takes 5 seconds. Do not skip.</text>
  </g>

  <!-- Arrow 2→3 -->
  <g transform="translate(615, 185)">
    <line x1="0" y1="10" x2="40" y2="10" stroke="#e94560" stroke-width="2" opacity="0.6"/>
    <polygon points="40,10 32,5 32,15" fill="#e94560" opacity="0.6"/>
    <text x="20" y="0" font-family="monospace" font-size="9" fill="#555" text-anchor="middle">next</text>
  </g>

  <!-- STEP 3: KYC + Deposit -->
  <g transform="translate(660, 95)" filter="url(#shadow)">
    <rect x="0" y="0" width="215" height="200" fill="#16213e" rx="10"/>
    <rect x="0" y="0" width="215" height="35" fill="#e94560" rx="10"/>
    <rect x="0" y="18" width="215" height="17" fill="#e94560"/>
    <circle cx="20" cy="17" r="11" fill="#fff" opacity="0.2"/>
    <text x="20" y="22" font-family="monospace" font-size="12" font-weight="bold" fill="#fff" text-anchor="middle">3</text>
    <text x="115" y="22" font-family="monospace" font-size="13" font-weight="bold" fill="#fff" text-anchor="middle">KYC + Deposit</text>
    
    <rect x="12" y="50" width="190" height="28" fill="#0f3460" rx="5"/>
    <text x="22" y="69" font-family="monospace" font-size="10" fill="#8892b0">Upload Photo ID</text>
    
    <rect x="12" y="85" width="190" height="28" fill="#0f3460" rx="5"/>
    <text x="22" y="104" font-family="monospace" font-size="10" fill="#8892b0">Proof of Address</text>
    
    <!-- Approval badge -->
    <rect x="12" y="122" width="190" height="28" fill="#1a3a1e" rx="5"/>
    <text x="22" y="141" font-family="monospace" font-size="10" fill="#41b883">✅ Verified (15 min)</text>
    
    <rect x="12" y="158" width="190" height="28" fill="#1a3a1e" rx="5"/>
    <text x="22" y="177" font-family="monospace" font-size="10" fill="#41b883">💵 Deposit $1,000+</text>
  </g>

  <!-- Bottom: Bonus Credit Timeline -->
  <g transform="translate(30, 315)">
    <rect x="0" y="0" width="845" height="100" fill="#16213e" rx="12" filter="url(#shadow)"/>
    <text x="422" y="25" font-family="monospace" font-size="14" font-weight="bold" fill="#e94560" text-anchor="middle">BONUS CREDIT TIMELINE</text>
    <text x="422" y="42" font-family="monospace" font-size="10" fill="#8892b0" text-anchor="middle">Bonus credits automatically after deposit — no emails or support tickets needed</text>
    
    <!-- Timeline bars -->
    <g transform="translate(0, 55)">
      <!-- $500 bar -->
      <rect x="40" y="0" width="230" height="25" fill="#e94560" rx="4" opacity="0.8"/>
      <rect x="40" y="0" width="140" height="25" fill="#e94560" rx="4"/>
      <text x="155" y="17" font-family="monospace" font-size="11" font-weight="bold" fill="#fff" text-anchor="middle">$500 → $100 in 12 min</text>
      
      <!-- $2,000 bar -->
      <rect x="300" y="0" width="230" height="25" fill="#e94560" rx="4" opacity="0.8"/>
      <rect x="300" y="0" width="200" height="25" fill="#ffa500" rx="4"/>
      <text x="415" y="17" font-family="monospace" font-size="11" font-weight="bold" fill="#fff" text-anchor="middle">$2,000 → $400 in 42 min</text>
      
      <!-- $5,000 bar -->
      <rect x="560" y="0" width="250" height="25" fill="#e94560" rx="4" opacity="0.8"/>
      <rect x="560" y="0" width="250" height="25" fill="#41b883" rx="4"/>
      <text x="685" y="17" font-family="monospace" font-size="11" font-weight="bold" fill="#fff" text-anchor="middle">$5,000 → $750 in ~2 hrs</text>
    </g>
  </g>

  <!-- Bottom: Key Takeaways -->
  <g transform="translate(30, 435)">
    <rect x="0" y="0" width="845" height="70" fill="#1a1a2e" rx="10" stroke="#e94560" stroke-width="1" opacity="0.5"/>
    
    <!-- Tip 1 -->
    <g transform="translate(15, 15)">
      <circle cx="8" cy="8" r="8" fill="#e94560"/>
      <text x="8" y="12" font-family="monospace" font-size="9" font-weight="bold" fill="#fff" text-anchor="middle">1</text>
      <text x="25" y="22" font-family="monospace" font-size="11" fill="#e94560" font-weight="bold">Enter code DURING signup.</text>
      <text x="25" y="37" font-family="monospace" font-size="10" fill="#8892b0">Not after. Retroactive linking takes 48 hours.</text>
    </g>
    
    <!-- Tip 2 -->
    <g transform="translate(300, 15)">
      <circle cx="8" cy="8" r="8" fill="#41b883"/>
      <text x="8" y="12" font-family="monospace" font-size="9" font-weight="bold" fill="#000" text-anchor="middle">2</text>
      <text x="25" y="22" font-family="monospace" font-size="11" fill="#41b883" font-weight="bold">Look below the phone field.</text>
      <text x="25" y="37" font-family="monospace" font-size="10" fill="#8892b0">The code field is collapsed. Click to expand.</text>
    </g>
    
    <!-- Tip 3 -->
    <g transform="translate(585, 15)">
      <circle cx="8" cy="8" r="8" fill="#ffa500"/>
      <text x="8" y="12" font-family="monospace" font-size="9" font-weight="bold" fill="#000" text-anchor="middle">3</text>
      <text x="25" y="22" font-family="monospace" font-size="11" fill="#ffa500" font-weight="bold">Deposit $1,000+.</text>
      <text x="25" y="37" font-family="monospace" font-size="10" fill="#8892b0">Bonus activates at $1k. Credits in 12min-2hrs.</text>
    </g>
  </g>

  <!-- Footer -->
  <text x="450" y="580" font-family="monospace" font-size="10" fill="#555" text-anchor="middle">AvaTrade Partner Code 128979 · Full guide: tradetheday.com/brokers/avatrade/partner-code</text>
</svg>
